<svg width="646" height="100" viewBox="0 0 646 100" fill="none" xmlns="http://www.w3.org/2000/svg">
<g clip-path="url(#clip0_5_1408)">
<mask id="mask0_5_1408" style="mask-type:luminance" maskUnits="userSpaceOnUse" x="0" y="0" width="646" height="100">
<path d="M646 0H0V100H646V0Z" fill="white"/>
</mask>
<g mask="url(#mask0_5_1408)">
<path d="M65.352 100H49.352V45H25.982L16.743 29H49.352V16H9.23798L0.000976562 0H65.785L90.638 43.045V75.045L65.352 31.25V100ZM75.094 0H93.569L132.852 68.039V99.718L132.714 99.797L75.094 0Z" fill="#EFF3F5"/>
<path d="M162.815 70.9999H158.252V31.7369H180.137V35.7919H162.815V50.1599H179.09V54.2149H162.815V70.9999ZM201.043 41.0289C202.223 41.0169 203.402 41.1248 204.561 41.3509L203.943 45.4869C202.886 45.2387 201.805 45.1046 200.72 45.0869C199.55 45.0839 198.394 45.3429 197.336 45.8446C196.279 46.3464 195.348 47.0784 194.61 47.9869C192.891 49.9934 191.986 52.5704 192.072 55.2109V70.9999H187.615V41.5659H191.294L191.804 47.0179H192.019C192.974 45.255 194.325 43.7381 195.967 42.5869C197.461 41.5624 199.232 41.0188 201.043 41.0289ZM236.02 56.2559C236.02 61.0559 234.812 64.8022 232.395 67.4949C229.978 70.1876 226.639 71.5349 222.378 71.5369C219.915 71.5819 217.488 70.9403 215.369 69.6839C213.301 68.4191 211.656 66.5685 210.642 64.3669C209.482 61.8237 208.913 59.0512 208.977 56.2569C208.977 51.4569 210.177 47.7196 212.577 45.0449C214.977 42.3702 218.307 41.0319 222.567 41.0299C224.405 40.9469 226.239 41.2724 227.936 41.9829C229.633 42.6934 231.152 43.7712 232.383 45.1389C234.808 47.8776 236.02 51.5832 236.02 56.2559ZM213.596 56.2559C213.596 60.0186 214.348 62.8832 215.852 64.8499C216.637 65.8405 217.651 66.6263 218.806 67.14C219.961 67.6538 221.223 67.8802 222.485 67.7999C223.747 67.8797 225.01 67.6546 226.167 67.1436C227.324 66.6326 228.341 65.8507 229.132 64.8639C230.645 62.9032 231.401 60.0342 231.401 56.2569C231.401 52.5149 230.645 49.6726 229.132 47.7299C228.328 46.7453 227.301 45.9672 226.135 45.4603C224.97 44.9534 223.7 44.7324 222.432 44.8159C221.181 44.7325 219.929 44.95 218.78 45.45C217.63 45.95 216.618 46.7181 215.826 47.6899C214.339 49.6052 213.596 52.4606 213.596 56.2559ZM265.627 70.9999V51.9589C265.627 49.5589 265.081 47.7686 263.989 46.5879C262.897 45.4072 261.187 44.8166 258.86 44.8159C255.781 44.8159 253.525 45.6492 252.092 47.3159C250.659 48.9826 249.943 51.7309 249.944 55.5609V70.9999H245.485V41.5659H249.11L249.835 45.5939H250.052C250.984 44.1269 252.316 42.9575 253.892 42.2239C255.611 41.4094 257.494 40.999 259.397 41.0239C262.942 41.0239 265.608 41.8789 267.397 43.5889C269.186 45.2989 270.081 48.0322 270.083 51.7889V70.9999H265.627ZM290.4 67.8579C291.164 67.8596 291.928 67.801 292.683 67.6829C293.272 67.5972 293.855 67.4759 294.429 67.3199V70.7309C293.747 71.0193 293.029 71.2135 292.294 71.3079C291.454 71.4517 290.604 71.5282 289.752 71.5369C284.059 71.5369 281.212 68.5369 281.212 62.5369V45.0269H276.996V42.8789L281.212 41.0259L283.092 34.7419H285.67V41.5629H294.21V45.0269H285.67V62.3529C285.572 63.8228 286.021 65.277 286.932 66.4349C287.369 66.9131 287.907 67.2887 288.506 67.5347C289.105 67.7808 289.752 67.8911 290.399 67.8579H290.4ZM314.393 71.5369C310.042 71.5369 306.609 70.2119 304.093 67.5619C301.577 64.9119 300.319 61.2326 300.32 56.5239C300.32 51.7792 301.487 48.0106 303.82 45.2179C304.962 43.8441 306.405 42.7517 308.038 42.0253C309.67 41.2989 311.448 40.958 313.233 41.0289C314.87 40.9513 316.505 41.2374 318.019 41.8666C319.532 42.4958 320.888 43.4525 321.988 44.6679C324.227 47.3511 325.377 50.7771 325.211 54.2679V57.0879H304.94C305.029 60.5432 305.902 63.1662 307.558 64.9569C308.465 65.8785 309.559 66.595 310.767 67.0583C311.974 67.5216 313.267 67.721 314.558 67.6429C317.794 67.6291 320.993 66.9529 323.958 65.6559V69.6299C322.519 70.266 321.019 70.7564 319.482 71.0939C317.805 71.414 316.1 71.5625 314.393 71.5369ZM313.185 44.7619C312.132 44.7146 311.081 44.8966 310.105 45.2955C309.128 45.6943 308.251 46.3004 307.532 47.0719C306.022 48.8703 305.148 51.1176 305.048 53.4639H320.436C320.436 50.6532 319.809 48.5002 318.556 47.0049C317.891 46.2463 317.061 45.6499 316.13 45.2611C315.199 44.8724 314.192 44.7016 313.185 44.7619ZM354.607 70.9999V51.9589C354.607 49.5589 354.061 47.7686 352.969 46.5879C351.877 45.4072 350.167 44.8166 347.84 44.8159C344.761 44.8159 342.505 45.6492 341.072 47.3159C339.639 48.9826 338.923 51.7309 338.924 55.5609V70.9999H334.466V41.5659H338.091L338.816 45.5939H339.031C339.963 44.1269 341.295 42.9575 342.871 42.2239C344.59 41.4094 346.473 40.999 348.376 41.0239C351.921 41.0239 354.587 41.8789 356.376 43.5889C358.165 45.2989 359.06 48.0322 359.062 51.7889V70.9999H354.607ZM389.907 67.0519H389.665C387.606 70.0419 384.527 71.5369 380.427 71.5369C378.726 71.6245 377.027 71.3132 375.467 70.6277C373.908 69.9422 372.53 68.9016 371.444 67.5889C369.305 64.9569 368.235 61.2149 368.235 56.3629C368.235 51.5109 369.309 47.7422 371.458 45.0569C372.53 43.7262 373.901 42.6678 375.46 41.9678C377.019 41.2678 378.721 40.9461 380.428 41.0289C382.2 40.9358 383.967 41.2847 385.57 42.0442C387.173 42.8038 388.563 43.95 389.613 45.3799H389.962L389.774 43.2579L389.667 41.1899V29.2129H394.125V70.9999H390.5L389.907 67.0519ZM380.991 67.8039C384.034 67.8039 386.241 66.9759 387.611 65.3199C388.981 63.6639 389.666 60.9919 389.665 57.3039V56.3639C389.665 52.1926 388.971 49.2162 387.584 47.4349C386.197 45.6536 383.981 44.7629 380.937 44.7629C379.759 44.709 378.587 44.9615 377.535 45.4957C376.483 46.0299 375.588 46.8276 374.937 47.8109C373.547 49.8422 372.852 52.7109 372.852 56.4169C372.852 60.1769 373.541 63.0146 374.92 64.9299C375.61 65.8788 376.528 66.6389 377.589 67.1404C378.65 67.6419 379.82 67.8687 380.991 67.7999V67.8039ZM439.211 70.9999L425.891 36.1999H425.676C425.927 38.9572 426.052 42.2336 426.052 46.0289V70.9999H421.836V31.7369H428.711L441.144 64.1249H441.359L453.901 31.7369H460.722V70.9999H456.152V45.6999C456.152 42.7992 456.277 39.6482 456.528 36.2469H456.313L442.89 70.9999H439.211ZM476.659 41.5659V60.6599C476.659 63.0599 477.205 64.8502 478.297 66.0309C479.389 67.2116 481.099 67.8012 483.427 67.7999C486.506 67.7999 488.758 66.9586 490.181 65.2759C491.604 63.5932 492.316 60.8449 492.316 57.0309V41.5659H496.774V70.9999H493.095L492.452 67.0519H492.21C491.292 68.5062 489.972 69.663 488.41 70.3819C486.671 71.1773 484.775 71.572 482.863 71.5369C479.282 71.5369 476.601 70.6866 474.82 68.9859C473.039 67.2852 472.149 64.5639 472.152 60.8219V41.5659H476.659ZM526.859 62.9659C526.917 64.1939 526.668 65.4169 526.133 66.5239C525.598 67.6308 524.795 68.5865 523.797 69.3039C521.76 70.7926 518.897 71.5369 515.209 71.5369C511.306 71.5369 508.263 70.9192 506.078 69.6839V65.5479C507.528 66.2775 509.055 66.845 510.63 67.2399C512.16 67.6401 513.734 67.8477 515.316 67.8579C517.173 67.9627 519.025 67.5782 520.687 66.7429C521.286 66.4074 521.779 65.9114 522.111 65.3107C522.443 64.71 522.601 64.0285 522.567 63.3429C522.564 62.7707 522.428 62.207 522.169 61.6966C521.91 61.1861 521.537 60.7429 521.077 60.4019C519.282 59.1746 517.325 58.203 515.263 57.5149C513.23 56.8254 511.273 55.9301 509.422 54.8429C508.374 54.19 507.491 53.3028 506.844 52.2509C506.257 51.1928 505.965 49.9965 505.998 48.7869C505.965 47.6697 506.216 46.5625 506.728 45.5691C507.24 44.5756 507.996 43.7284 508.925 43.1069C510.876 41.7196 513.553 41.0259 516.955 41.0259C520.152 41.0319 523.313 41.6899 526.247 42.9599L524.663 46.5849C522.13 45.4604 519.403 44.8401 516.633 44.7589C514.979 44.6556 513.328 44.9989 511.853 45.7529C511.36 46.0192 510.95 46.4152 510.666 46.8979C510.382 47.3807 510.235 47.9319 510.242 48.4919C510.22 49.2103 510.43 49.9167 510.842 50.5059C511.371 51.166 512.035 51.706 512.789 52.0899C514.459 52.9248 516.181 53.6513 517.945 54.2649C521.436 55.5362 523.795 56.8162 525.021 58.1049C525.634 58.7543 526.112 59.5184 526.428 60.3534C526.745 61.1883 526.893 62.0775 526.864 62.9699L526.859 62.9659ZM548.199 71.5369C543.848 71.5369 540.415 70.2119 537.899 67.5619C535.383 64.9119 534.125 61.2326 534.126 56.5239C534.126 51.7792 535.293 48.0106 537.626 45.2179C538.768 43.8441 540.211 42.7517 541.844 42.0253C543.476 41.2989 545.254 40.958 547.039 41.0289C548.676 40.9513 550.311 41.2374 551.825 41.8666C553.338 42.4958 554.694 43.4525 555.794 44.6679C558.033 47.3511 559.183 50.7771 559.017 54.2679V57.0879H538.746C538.835 60.5432 539.708 63.1662 541.364 64.9569C542.271 65.8785 543.365 66.595 544.573 67.0583C545.78 67.5216 547.073 67.721 548.364 67.6429C551.6 67.6291 554.799 66.9529 557.764 65.6559V69.6299C556.325 70.266 554.825 70.7564 553.288 71.0939C551.611 71.414 549.906 71.5625 548.199 71.5369ZM546.991 44.7619C545.938 44.7146 544.887 44.8966 543.911 45.2955C542.934 45.6943 542.057 46.3004 541.338 47.0719C539.827 48.8697 538.953 51.1167 538.852 53.4629H554.24C554.24 50.6522 553.613 48.4992 552.36 47.0039C551.695 46.2456 550.865 45.6495 549.935 45.2609C549.004 44.8723 547.997 44.7016 546.99 44.7619H546.991ZM572.462 41.5619V60.6559C572.462 63.0559 573.008 64.8462 574.1 66.0269C575.192 67.2076 576.902 67.7986 579.229 67.7999C582.308 67.7999 584.56 66.9586 585.983 65.2759C587.406 63.5932 588.118 60.8449 588.118 57.0309V41.5659H592.576V70.9999H588.897L588.252 67.0519H588.01C587.092 68.5062 585.772 69.663 584.21 70.3819C582.471 71.177 580.576 71.5717 578.665 71.5369C575.084 71.5369 572.403 70.6866 570.622 68.9859C568.841 67.2852 567.951 64.5639 567.952 60.8219V41.5659L572.462 41.5619ZM641.196 70.9999V51.8519C641.338 49.9706 640.806 48.1001 639.696 46.5749C639.096 45.9532 638.366 45.4728 637.558 45.1685C636.75 44.8642 635.884 44.7438 635.023 44.8159C632.248 44.8159 630.198 45.6126 628.873 47.2059C627.548 48.7992 626.886 51.2519 626.886 54.5639V70.9999H622.428V51.8519C622.57 49.9706 622.038 48.1001 620.928 46.5749C620.324 45.9515 619.589 45.4702 618.776 45.166C617.963 44.8618 617.093 44.7422 616.228 44.8159C613.435 44.8159 611.39 45.6529 610.092 47.3269C608.794 49.0009 608.145 51.7446 608.145 55.5579V70.9999H603.687V41.5659H607.312L608.037 45.5939H608.252C609.095 44.1598 610.329 42.9954 611.81 42.2369C613.399 41.4175 615.165 41.0025 616.953 41.0289C621.553 41.0289 624.561 42.6956 625.976 46.0289H626.191C627.086 44.4718 628.41 43.2043 630.004 42.3769C631.759 41.4599 633.717 40.9981 635.697 41.0339C639.03 41.0339 641.523 41.8889 643.176 43.5989C644.829 45.3089 645.657 48.0422 645.66 51.7989V70.9999H641.196Z" fill="#EFF3F5"/>
</g>
</g>
<defs>
<clipPath id="clip0_5_1408">
<rect width="646" height="100" fill="white"/>
</clipPath>
</defs>
</svg>
